<svg xmlns="http://www.w3.org/2000/svg" version="1.1" xmlns:xlink="http://www.w3.org/1999/xlink" xmlns:svgjs="http://svgjs.dev/svgjs" width="1500" height="2877" viewBox="0 0 1500 2877"><g transform="matrix(1,0,0,1,-1.7406874533422751,-3.5085365853656185)"><svg viewBox="0 0 171 328" data-background-color="#191552" preserveAspectRatio="xMidYMid meet" height="2877" width="1500" xmlns="http://www.w3.org/2000/svg" xmlns:xlink="http://www.w3.org/1999/xlink"><g id="tight-bounds" transform="matrix(1,0,0,1,0.19843836968101414,0.39999999999997726)"><svg viewBox="0 0 170.603123260638 327.2" height="327.2" width="170.603123260638"><g><svg viewBox="0 0 249.7780281690141 479.04967538046105" height="327.2" width="170.603123260638"><g transform="matrix(1,0,0,1,0,151.84967538046106)"><svg viewBox="0 0 249.7780281690141 327.2" height="327.2" width="249.7780281690141"><g id="textblocktransform"><svg viewBox="0 0 249.7780281690141 327.2" height="327.2" width="249.7780281690141" id="textblock"><g><svg viewBox="0 0 249.7780281690141 327.2" height="327.2" width="249.7780281690141"><g transform="matrix(1,0,0,1,0,0)"><svg width="249.7780281690141" viewBox="4.25 -35.5 27.1 35.5" height="327.2" data-palette-color="url(#9dedb87b-d5b7-474a-8f98-5ecd98620ec4)"></svg></g></svg></g></svg></g></svg></g><g transform="matrix(1,0,0,1,1.3987569577464711,0)"><svg viewBox="0 0 246.98051425352116 125.67367538046108" height="125.67367538046108" width="246.98051425352116"><g><svg xmlns="http://www.w3.org/2000/svg" xmlns:xlink="http://www.w3.org/1999/xlink" version="1.0" x="0" y="0" viewBox="1.828 13.449 47.113 23.973" enable-background="new 0 0 50 50" xml:space="preserve" height="125.67367538046108" width="246.98051425352116" class="icon-icon-0" data-fill-palette-color="accent" id="icon-0"></svg></g></svg></g><g></g></svg></g><defs></defs><mask id="25bf73e4-6307-4006-9701-ad61dccf6cd1"><g id="SvgjsG1501"><svg viewBox="0 0 170.603123260638 327.2" height="327.2" width="170.603123260638"><g><svg viewBox="0 0 249.7780281690141 479.04967538046105" height="327.2" width="170.603123260638"><g transform="matrix(1,0,0,1,0,151.84967538046106)"><svg viewBox="0 0 249.7780281690141 327.2" height="327.2" width="249.7780281690141"><g id="SvgjsG1500"><svg viewBox="0 0 249.7780281690141 327.2" height="327.2" width="249.7780281690141" id="SvgjsSvg1499"><g><svg viewBox="0 0 249.7780281690141 327.2" height="327.2" width="249.7780281690141"><g transform="matrix(1,0,0,1,0,0)"><svg width="249.7780281690141" viewBox="4.25 -35.5 27.1 35.5" height="327.2" data-palette-color="url(#9dedb87b-d5b7-474a-8f98-5ecd98620ec4)"><path d="M8.75 0L4.25 0 4.25-35.5 19.45-35.5Q21.8-35.5 23.75-34.52 25.7-33.55 27.15-31.93 28.6-30.3 29.4-28.28 30.2-26.25 30.2-24.15L30.2-24.15Q30.2-21.7 29.28-19.5 28.35-17.3 26.68-15.75 25-14.2 22.75-13.6L22.75-13.6 31.35 0 26.25 0 18.15-12.75 8.75-12.75 8.75 0ZM8.75-31.5L8.75-16.75 19.5-16.75Q21.35-16.75 22.73-17.78 24.1-18.8 24.88-20.5 25.65-22.2 25.65-24.15L25.65-24.15Q25.65-26.15 24.75-27.83 23.85-29.5 22.4-30.5 20.95-31.5 19.2-31.5L19.2-31.5 8.75-31.5Z" opacity="1" transform="matrix(1,0,0,1,0,0)" fill="white" class="wordmark-text-0" id="SvgjsPath1498"></path></svg></g></svg></g></svg></g></svg></g><g transform="matrix(1,0,0,1,1.3987569577464711,0)"><svg viewBox="0 0 246.98051425352116 125.67367538046108" height="125.67367538046108" width="246.98051425352116"><g><svg xmlns="http://www.w3.org/2000/svg" xmlns:xlink="http://www.w3.org/1999/xlink" version="1.0" x="0" y="0" viewBox="1.828 13.449 47.113 23.973" enable-background="new 0 0 50 50" xml:space="preserve" height="125.67367538046108" width="246.98051425352116" class="icon-icon-0" data-fill-palette-color="accent" id="SvgjsSvg1497"><g fill="black"><path fill="black" d="M37 13.45V13.73L36.953 13.45C34.908 13.466 32.745 14.32 31.202 15.362 28.88 16.95 27.281 19.125 25.828 20.918 25.693 21.085 24.47 22.738 23.112 24.535 21.76 26.327 20.27 28.26 19.668 28.901 18.658 29.983 17.893 31.14 16.826 31.847 15.78 32.555 14.435 33 13.849 33H13.805C11.784 33 9.967 32.066 8.631 30.736A7.43 7.43 0 0 1 6.485 25.495C6.486 23.463 7.301 21.564 8.631 20.229 9.967 18.899 11.784 18 13.815 18H13.854C14.457 18 15.471 18.408 16.553 19.157 18.093 20.197 19.354 21.553 20.604 23.064L20.83 23.353 23.689 19.522 23.542 19.355C23.343 19.126 23.506 19.266 23.292 19.032 22.104 17.739 21.099 16.419 19.549 15.361 18.001 14.319 15.862 13.465 13.818 13.449 7.194 13.452 1.83 18.815 1.828 25.436 1.83 32.056 7.194 37.42 13.815 37.422 15.862 37.406 18.001 36.552 19.546 35.51 21.867 33.922 23.455 31.747 24.908 29.953 25.041 29.788 26.259 28.135 27.616 26.337 28.968 24.546 30.456 22.612 31.059 21.971 32.067 20.888 33.204 19.796 34.272 19.089 35.32 18.382 36.291 18 36.877 18H36.897C38.944 18 40.76 18.87 42.094 20.201A7.35 7.35 0 0 1 44.24 25.41C44.238 27.441 43.426 29.388 42.094 30.723 40.76 32.054 38.943 33 36.91 33H36.873C36.269 33 34.881 32.528 33.799 31.778 32.26 30.74 31.266 29.247 30.018 27.735L29.789 27.432 26.932 31.253 27.08 31.417C27.279 31.646 27.221 31.608 27.434 31.842 28.622 33.134 29.627 34.452 31.176 35.511 32.723 36.553 34.864 37.407 36.908 37.422 43.531 37.421 48.939 32.056 48.941 25.436 48.939 18.816 43 13.452 37 13.45"></path></g></svg></g></svg></g><g></g></svg></g><defs><mask></mask></defs></svg><rect width="170.603123260638" height="327.2" fill="black" stroke="none" visibility="hidden"></rect></g></mask><linearGradient x1="0" x2="1" y1="0.578" y2="0.595" id="9dedb87b-d5b7-474a-8f98-5ecd98620ec4"><stop stop-color="#6ee2f5" offset="0"></stop><stop stop-color="#6454f0" offset="1"></stop></linearGradient><rect width="170.603123260638" height="327.2" fill="url(#9dedb87b-d5b7-474a-8f98-5ecd98620ec4)" mask="url(#25bf73e4-6307-4006-9701-ad61dccf6cd1)" data-fill-palette-color="primary"></rect><mask id="833b98f4-197e-4591-a598-1ff8a3a1dac5"><g id="SvgjsG1510"><svg viewBox="0 0 170.603123260638 327.2" height="327.2" width="170.603123260638"><g><svg viewBox="0 0 249.7780281690141 479.04967538046105" height="327.2" width="170.603123260638"><g transform="matrix(1,0,0,1,0,151.84967538046106)"><svg viewBox="0 0 249.7780281690141 327.2" height="327.2" width="249.7780281690141"><g id="SvgjsG1509"><svg viewBox="0 0 249.7780281690141 327.2" height="327.2" width="249.7780281690141" id="SvgjsSvg1508"><g><svg viewBox="0 0 249.7780281690141 327.2" height="327.2" width="249.7780281690141"><g transform="matrix(1,0,0,1,0,0)"><svg width="249.7780281690141" viewBox="4.25 -35.5 27.1 35.5" height="327.2" data-palette-color="url(#9dedb87b-d5b7-474a-8f98-5ecd98620ec4)"></svg></g></svg></g></svg></g></svg></g><g transform="matrix(1,0,0,1,1.3987569577464711,0)"><svg viewBox="0 0 246.98051425352116 125.67367538046108" height="125.67367538046108" width="246.98051425352116"><g><svg xmlns="http://www.w3.org/2000/svg" xmlns:xlink="http://www.w3.org/1999/xlink" version="1.0" x="0" y="0" viewBox="1.828 13.449 47.113 23.973" enable-background="new 0 0 50 50" xml:space="preserve" height="125.67367538046108" width="246.98051425352116" class="icon-icon-0" data-fill-palette-color="accent" id="SvgjsSvg1507"><g fill="white"><path fill="white" d="M37 13.45V13.73L36.953 13.45C34.908 13.466 32.745 14.32 31.202 15.362 28.88 16.95 27.281 19.125 25.828 20.918 25.693 21.085 24.47 22.738 23.112 24.535 21.76 26.327 20.27 28.26 19.668 28.901 18.658 29.983 17.893 31.14 16.826 31.847 15.78 32.555 14.435 33 13.849 33H13.805C11.784 33 9.967 32.066 8.631 30.736A7.43 7.43 0 0 1 6.485 25.495C6.486 23.463 7.301 21.564 8.631 20.229 9.967 18.899 11.784 18 13.815 18H13.854C14.457 18 15.471 18.408 16.553 19.157 18.093 20.197 19.354 21.553 20.604 23.064L20.83 23.353 23.689 19.522 23.542 19.355C23.343 19.126 23.506 19.266 23.292 19.032 22.104 17.739 21.099 16.419 19.549 15.361 18.001 14.319 15.862 13.465 13.818 13.449 7.194 13.452 1.83 18.815 1.828 25.436 1.83 32.056 7.194 37.42 13.815 37.422 15.862 37.406 18.001 36.552 19.546 35.51 21.867 33.922 23.455 31.747 24.908 29.953 25.041 29.788 26.259 28.135 27.616 26.337 28.968 24.546 30.456 22.612 31.059 21.971 32.067 20.888 33.204 19.796 34.272 19.089 35.32 18.382 36.291 18 36.877 18H36.897C38.944 18 40.76 18.87 42.094 20.201A7.35 7.35 0 0 1 44.24 25.41C44.238 27.441 43.426 29.388 42.094 30.723 40.76 32.054 38.943 33 36.91 33H36.873C36.269 33 34.881 32.528 33.799 31.778 32.26 30.74 31.266 29.247 30.018 27.735L29.789 27.432 26.932 31.253 27.08 31.417C27.279 31.646 27.221 31.608 27.434 31.842 28.622 33.134 29.627 34.452 31.176 35.511 32.723 36.553 34.864 37.407 36.908 37.422 43.531 37.421 48.939 32.056 48.941 25.436 48.939 18.816 43 13.452 37 13.45"></path></g></svg></g></svg></g><g></g></svg></g><defs><mask></mask></defs><mask><g id="SvgjsG1506"><svg viewBox="0 0 170.603123260638 327.2" height="327.2" width="170.603123260638"><g><svg viewBox="0 0 249.7780281690141 479.04967538046105" height="327.2" width="170.603123260638"><g transform="matrix(1,0,0,1,0,151.84967538046106)"><svg viewBox="0 0 249.7780281690141 327.2" height="327.2" width="249.7780281690141"><g id="SvgjsG1505"><svg viewBox="0 0 249.7780281690141 327.2" height="327.2" width="249.7780281690141" id="SvgjsSvg1504"><g><svg viewBox="0 0 249.7780281690141 327.2" height="327.2" width="249.7780281690141"><g transform="matrix(1,0,0,1,0,0)"><svg width="249.7780281690141" viewBox="4.25 -35.5 27.1 35.5" height="327.2" data-palette-color="url(#9dedb87b-d5b7-474a-8f98-5ecd98620ec4)"><path d="M8.75 0L4.25 0 4.25-35.5 19.45-35.5Q21.8-35.5 23.75-34.52 25.7-33.55 27.15-31.93 28.6-30.3 29.4-28.28 30.2-26.25 30.2-24.15L30.2-24.15Q30.2-21.7 29.28-19.5 28.35-17.3 26.68-15.75 25-14.2 22.75-13.6L22.75-13.6 31.35 0 26.25 0 18.15-12.75 8.75-12.75 8.75 0ZM8.75-31.5L8.75-16.75 19.5-16.75Q21.35-16.75 22.73-17.78 24.1-18.8 24.88-20.5 25.65-22.2 25.65-24.15L25.65-24.15Q25.65-26.15 24.75-27.83 23.85-29.5 22.4-30.5 20.95-31.5 19.2-31.5L19.2-31.5 8.75-31.5Z" opacity="1" transform="matrix(1,0,0,1,0,0)" fill="black" class="wordmark-text-0" id="SvgjsPath1503"></path></svg></g></svg></g></svg></g></svg></g><g transform="matrix(1,0,0,1,1.3987569577464711,0)"><svg viewBox="0 0 246.98051425352116 125.67367538046108" height="125.67367538046108" width="246.98051425352116"><g><svg xmlns="http://www.w3.org/2000/svg" xmlns:xlink="http://www.w3.org/1999/xlink" version="1.0" x="0" y="0" viewBox="1.828 13.449 47.113 23.973" enable-background="new 0 0 50 50" xml:space="preserve" height="125.67367538046108" width="246.98051425352116" class="icon-icon-0" data-fill-palette-color="accent" id="SvgjsSvg1502"><g fill="black"><path fill="black" d="M37 13.45V13.73L36.953 13.45C34.908 13.466 32.745 14.32 31.202 15.362 28.88 16.95 27.281 19.125 25.828 20.918 25.693 21.085 24.47 22.738 23.112 24.535 21.76 26.327 20.27 28.26 19.668 28.901 18.658 29.983 17.893 31.14 16.826 31.847 15.78 32.555 14.435 33 13.849 33H13.805C11.784 33 9.967 32.066 8.631 30.736A7.43 7.43 0 0 1 6.485 25.495C6.486 23.463 7.301 21.564 8.631 20.229 9.967 18.899 11.784 18 13.815 18H13.854C14.457 18 15.471 18.408 16.553 19.157 18.093 20.197 19.354 21.553 20.604 23.064L20.83 23.353 23.689 19.522 23.542 19.355C23.343 19.126 23.506 19.266 23.292 19.032 22.104 17.739 21.099 16.419 19.549 15.361 18.001 14.319 15.862 13.465 13.818 13.449 7.194 13.452 1.83 18.815 1.828 25.436 1.83 32.056 7.194 37.42 13.815 37.422 15.862 37.406 18.001 36.552 19.546 35.51 21.867 33.922 23.455 31.747 24.908 29.953 25.041 29.788 26.259 28.135 27.616 26.337 28.968 24.546 30.456 22.612 31.059 21.971 32.067 20.888 33.204 19.796 34.272 19.089 35.32 18.382 36.291 18 36.877 18H36.897C38.944 18 40.76 18.87 42.094 20.201A7.35 7.35 0 0 1 44.24 25.41C44.238 27.441 43.426 29.388 42.094 30.723 40.76 32.054 38.943 33 36.91 33H36.873C36.269 33 34.881 32.528 33.799 31.778 32.26 30.74 31.266 29.247 30.018 27.735L29.789 27.432 26.932 31.253 27.08 31.417C27.279 31.646 27.221 31.608 27.434 31.842 28.622 33.134 29.627 34.452 31.176 35.511 32.723 36.553 34.864 37.407 36.908 37.422 43.531 37.421 48.939 32.056 48.941 25.436 48.939 18.816 43 13.452 37 13.45"></path></g></svg></g></svg></g><g></g></svg></g><defs><mask></mask></defs></svg><rect width="170.603123260638" height="327.2" fill="black" stroke="none" visibility="hidden"></rect></g></mask></svg><rect width="170.603123260638" height="327.2" fill="black" stroke="none" visibility="hidden"></rect></g></mask><linearGradient x1="0" x2="1" y1="0.578" y2="0.595" id="b61a46b2-8528-4b40-b86a-dc3cf76ff8d0"><stop stop-color="#6ee2f5" offset="0"></stop><stop stop-color="#6454f0" offset="1"></stop></linearGradient><rect width="170.603123260638" height="327.2" fill="url(#b61a46b2-8528-4b40-b86a-dc3cf76ff8d0)" mask="url(#833b98f4-197e-4591-a598-1ff8a3a1dac5)" data-fill-palette-color="accent"></rect></svg><rect width="170.603123260638" height="327.2" fill="none" stroke="none" visibility="hidden"></rect></g></svg></g></svg>